<?xml version="1.0" encoding="UTF-8" standalone="no"?>
<svg
   id="Capa_1"
   viewBox="0 0 142 142"
   version="1.1"
   sodipodi:docname="svienna.svg"
   inkscape:version="1.1.2 (b8e25be833, 2022-02-05)"
   xmlns:inkscape="http://www.inkscape.org/namespaces/inkscape"
   xmlns:sodipodi="http://sodipodi.sourceforge.net/DTD/sodipodi-0.dtd"
   xmlns="http://www.w3.org/2000/svg"
   xmlns:svg="http://www.w3.org/2000/svg">
  <sodipodi:namedview
     id="namedview39"
     pagecolor="#ffffff"
     bordercolor="#666666"
     borderopacity="1.0"
     inkscape:pageshadow="2"
     inkscape:pageopacity="0.0"
     inkscape:pagecheckerboard="0"
     showgrid="false"
     inkscape:zoom="2.744373"
     inkscape:cx="102.57352"
     inkscape:cy="21.134153"
     inkscape:window-width="1920"
     inkscape:window-height="1057"
     inkscape:window-x="-8"
     inkscape:window-y="-1088"
     inkscape:window-maximized="1"
     inkscape:current-layer="vienna" />
  <g
     inkscape:groupmode="layer"
     id="vienna"
     inkscape:label="vienna">
    <style
       id="style26">.st0{fill:red}</style>
    <path
       class="st0"
       d="m 57.766842,53.418864 v -38.3 h -41.1 c 0,13.3 1,26.2 2.9,38.3 z m 0,12.1 h -36 c 6.9,32.7 20.2,57.099996 36,62.199996 z"
       id="path28"
       style="fill:#ff0000" />
    <path
       class="st0"
       d="m 69.766842,53.418864 v -38.3 h 41.099998 c 0,13.3 -1,26.2 -2.9,38.3 z m 0,12.1 h 35.999998 c -6.899998,32.7 -20.199998,57.099996 -35.999998,62.199996 z"
       id="path30"
       style="fill:#ff0000" />
  </g>
  <g
     inkscape:groupmode="layer"
     id="svelte"
     inkscape:label="svelte">
    <path
       d="m 93.254175,29.877193 c -7.53412,-10.851892 -22.53323,-14.031427 -33.316,-7.119394 l -19.00809,12.096058 c -5.18403,3.248655 -8.77828,8.57092 -9.81509,14.584389 -0.89856,5.045784 -0.13824,10.229806 2.28097,14.722627 -1.65889,2.488332 -2.76481,5.253145 -3.24865,8.156199 -1.10593,6.15171 0.3456,12.51078 3.93985,17.55656 7.60324,10.851898 22.53323,14.031428 33.316,7.18852 l 19.00809,-12.09606 c 5.18403,-3.24865 8.77828,-8.57092 9.81509,-14.584389 0.898556,-5.045784 0.138236,-10.229809 -2.28097,-14.722628 1.65889,-2.488331 2.764806,-5.253145 3.248646,-8.156198 1.10593,-6.22083 -0.27648,-12.5799 -3.939846,-17.625684 m -35.18225,61.033249 c -6.15171,1.58977 -12.5799,-0.82944 -16.17416,-6.01347 -2.21185,-3.04129 -3.04129,-6.84291 -2.41921,-10.57541 0.13824,-0.62208 0.27648,-1.17505 0.41472,-1.79713 l 0.3456,-1.10592 0.96769,0.6912 c 2.28097,1.65889 4.7693,2.90305 7.46499,3.7325 l 0.69121,0.20736 -0.0691,0.6912 c -0.0691,0.96769 0.20736,2.00449 0.76032,2.83393 1.10593,1.58977 3.04129,2.3501 4.90754,1.86625 0.41473,-0.13824 0.82945,-0.27648 1.17505,-0.48384 l 18.93897,-12.096057 c 0.96768,-0.622083 1.58977,-1.520647 1.79713,-2.626572 0.20736,-1.105925 -0.0691,-2.280971 -0.69121,-3.179535 -1.10592,-1.589768 -3.04129,-2.280971 -4.90754,-1.797129 -0.41472,0.138241 -0.82944,0.276482 -1.17504,0.483843 l -7.18852,4.561941 c -1.17504,0.760324 -2.48833,1.313286 -3.87074,1.658888 -6.15171,1.589768 -12.5799,-0.829444 -16.17415,-6.013468 -2.14273,-3.041295 -3.0413,-6.84291 -2.3501,-10.575408 0.62209,-3.594257 2.83394,-6.842912 5.94435,-8.778282 l 18.93895,-12.096057 c 1.17505,-0.760324 2.48834,-1.313286 3.87074,-1.728008 6.15171,-1.589768 12.5799,0.829444 16.17416,6.013468 2.21185,3.041295 3.04129,6.842913 2.41921,10.57541 -0.13824,0.622083 -0.27648,1.175046 -0.48384,1.797129 l -0.3456,1.105925 -0.96769,-0.691203 c -2.28097,-1.658888 -4.7693,-2.903054 -7.46499,-3.732498 l -0.69121,-0.207361 0.0691,-0.691203 c 0.0691,-0.967685 -0.20736,-2.00449 -0.76032,-2.833934 -1.10593,-1.589767 -3.0413,-2.28097 -4.90754,-1.797128 -0.41473,0.138241 -0.82945,0.276481 -1.17505,0.483842 l -18.93897,12.165178 c -0.96768,0.622083 -1.58977,1.520647 -1.79713,2.626573 -0.20736,1.105925 0.0691,2.28097 0.69121,3.179535 1.10592,1.589764 3.04129,2.280968 4.90754,1.797125 0.41472,-0.13824 0.82944,-0.276481 1.17504,-0.483842 l 7.25764,-4.631059 c 1.17504,-0.760324 2.48833,-1.313286 3.87074,-1.728008 6.15171,-1.589768 12.5799,0.829444 16.17415,6.013465 2.21185,3.041295 3.0413,6.842913 2.41922,10.575411 -0.62209,3.594259 -2.83394,6.842909 -5.94435,8.778279 l -18.93897,12.09606 c -1.24417,0.76032 -2.55745,1.31329 -3.93986,1.72801"
       id="path212"
       style="opacity:0.429487;stroke-width:0.691203" />
  </g>
</svg>
