<svg width="252" height="70" viewBox="0 0 252 70" fill="none" xmlns="http://www.w3.org/2000/svg">
<path d="M52.8829 10.992C46.6055 1.95023 34.1083 -0.698943 25.1241 5.00255L9.28661 15.1385C4.96729 17.8453 1.97257 22.2798 1.10871 27.2902C0.360028 31.4943 0.993527 35.8136 3.00921 39.557C1.62703 41.6303 0.705573 43.9339 0.302438 46.3528C-0.619016 51.4783 0.590392 56.7767 3.58511 60.9808C9.9201 70.0226 22.3597 72.6718 31.3439 66.9703L47.1814 56.8919C51.5007 54.1851 54.4954 49.7506 55.3593 44.7402C56.1079 40.5361 55.4744 36.2168 53.4588 32.4734C54.841 30.4001 55.7624 28.0965 56.1655 25.6777C57.1446 20.4945 55.9352 15.1961 52.8829 10.992Z" fill="#EE302D"/>
<path d="M23.5691 61.8447C18.4435 63.1693 13.0876 61.1536 10.0929 56.8343C8.24996 54.3003 7.55887 51.1328 8.07719 48.0229C8.19237 47.5046 8.30756 47.0438 8.42274 46.5255L8.71069 45.6041L9.51696 46.18C11.4175 47.5622 13.4907 48.5988 15.7368 49.2899L16.3127 49.4627L16.2551 50.0386C16.1975 50.8448 16.4279 51.7087 16.8886 52.3998C17.81 53.7244 19.4226 54.3579 20.9775 53.9547C21.3231 53.8396 21.6686 53.7244 21.9566 53.5516L37.7365 43.4732C38.5427 42.9549 39.0611 42.2062 39.2338 41.2848C39.4066 40.3633 39.1762 39.3843 38.6579 38.6356C37.7365 37.311 36.1239 36.7351 34.569 37.1382C34.2234 37.2534 33.8779 37.3686 33.5899 37.5414L27.5429 41.3999C26.5638 42.0334 25.4696 42.4942 24.3178 42.7821C19.1922 44.1067 13.8363 42.091 10.8416 37.7717C9.05624 35.2377 8.30756 32.0702 8.88346 28.9603C9.40178 25.9656 11.2447 23.2588 13.8363 21.6463L29.6737 11.5679C30.6528 10.9344 31.747 10.4737 32.8988 10.1281C38.0244 8.80353 43.3804 10.8192 46.3751 15.1385C48.218 17.6725 48.9091 20.84 48.3908 23.9499C48.2756 24.4682 48.1604 24.929 47.9876 25.4473L47.6997 26.3687L46.8934 25.7928C44.9929 24.4106 42.9196 23.374 40.6736 22.6829L40.0977 22.5101L40.1553 21.9342C40.2129 21.128 39.9825 20.2641 39.5218 19.573C38.6003 18.2484 36.9878 17.6725 35.4328 18.0757C35.0873 18.1908 34.7417 18.306 34.4538 18.4788L18.6739 28.5572C17.8676 29.0755 17.3493 29.8242 17.1765 30.7456C17.0038 31.6671 17.2341 32.6461 17.7524 33.3948C18.6739 34.7194 20.2864 35.2953 21.8414 34.8922C22.1869 34.777 22.5325 34.6618 22.8204 34.489L28.8675 30.6305C29.8465 29.997 30.9407 29.5362 32.0926 29.1907C37.2181 27.8661 42.5741 29.8818 45.5688 34.2011C47.4117 36.7351 48.1028 39.9026 47.5845 43.0125C47.0662 46.0072 45.2233 48.714 42.6317 50.3265L26.7942 60.4049C25.8152 61.0384 24.7209 61.4991 23.5691 61.8447Z" fill="white"/>
<path d="M81.55 54.9C79.45 54.9 77.4 54.6 75.4 54C73.4 53.3667 71.6833 52.5167 70.25 51.45L71.3 45.1H71.55C72.9167 46.1667 74.4667 47.0167 76.2 47.65C77.9333 48.25 79.6667 48.55 81.4 48.55C83.3333 48.55 84.8333 48.1667 85.9 47.4C86.9667 46.6333 87.5 45.4833 87.5 43.95C87.5 42.85 87.1833 41.9 86.55 41.1C85.95 40.2667 84.8333 39.5 83.2 38.8L78.3 36.6C75.7667 35.4667 73.8833 34 72.65 32.2C71.4167 30.4 70.8 28.35 70.8 26.05C70.8 23.8833 71.3 22.0333 72.3 20.5C73.3333 18.9333 74.7667 17.7333 76.6 16.9C78.4333 16.0333 80.55 15.6 82.95 15.6C84.8167 15.6 86.6 15.85 88.3 16.35C90 16.85 91.4667 17.5167 92.7 18.35L91.6 24.45H91.35C90.3167 23.6833 89.1 23.0833 87.7 22.65C86.3 22.1833 84.8667 21.95 83.4 21.95C81.6667 21.95 80.3 22.2667 79.3 22.9C78.3 23.5333 77.8 24.5167 77.8 25.85C77.8 26.95 78.1333 27.8833 78.8 28.65C79.4667 29.4167 80.55 30.1333 82.05 30.8L86.65 32.85C89.4167 34.05 91.4 35.5167 92.6 37.25C93.8333 38.9833 94.45 41.0833 94.45 43.55C94.45 45.85 93.9167 47.85 92.85 49.55C91.7833 51.25 90.2833 52.5667 88.35 53.5C86.4167 54.4333 84.15 54.9 81.55 54.9ZM106.066 54C104.666 51.5333 103.349 48.8833 102.116 46.05C100.916 43.1833 99.849 40.2833 98.9156 37.35C98.0156 34.3833 97.299 31.55 96.7656 28.85H104.016C104.482 31.6833 105.199 34.6833 106.166 37.85C107.166 41.0167 108.382 44.2333 109.816 47.5H110.166C111.632 44.2333 112.866 41.0167 113.866 37.85C114.866 34.6833 115.582 31.6833 116.016 28.85H122.916C122.382 31.55 121.649 34.3833 120.716 37.35C119.816 40.2833 118.749 43.1833 117.516 46.05C116.282 48.8833 114.949 51.5333 113.516 54H106.066ZM126.402 54V28.85H133.402V54H126.402ZM129.902 24.8C128.569 24.8 127.486 24.4 126.652 23.6C125.819 22.7667 125.402 21.7333 125.402 20.5C125.402 19.2333 125.819 18.2 126.652 17.4C127.486 16.6 128.569 16.2 129.902 16.2C131.269 16.2 132.352 16.6 133.152 17.4C133.986 18.2 134.402 19.2333 134.402 20.5C134.402 21.7333 133.986 22.7667 133.152 23.6C132.352 24.4 131.269 24.8 129.902 24.8ZM151.179 54.6C148.446 54.6 146.079 54.0667 144.079 53C142.112 51.9333 140.596 50.4167 139.529 48.45C138.462 46.4833 137.929 44.1833 137.929 41.55C137.929 38.7833 138.479 36.4167 139.579 34.45C140.712 32.45 142.262 30.9167 144.229 29.85C146.196 28.7833 148.429 28.25 150.929 28.25C154.629 28.25 157.512 29.3833 159.579 31.65C161.646 33.9167 162.679 37.05 162.679 41.05V42.6L142.129 44.9V39.85L159.279 37.95L155.879 40.3C155.879 38.0333 155.412 36.4 154.479 35.4C153.579 34.3667 152.346 33.85 150.779 33.85C148.979 33.85 147.546 34.4667 146.479 35.7C145.446 36.9333 144.929 38.7833 144.929 41.25C144.929 44.0167 145.596 45.9667 146.929 47.1C148.262 48.2 150.046 48.75 152.279 48.75C153.912 48.75 155.546 48.5333 157.179 48.1C158.812 47.6667 160.046 47.1833 160.879 46.65H161.229L160.229 52.65C159.296 53.15 157.996 53.6 156.329 54C154.662 54.4 152.946 54.6 151.179 54.6ZM167.005 54V28.85H173.355V33.1H173.655C174.288 31.6333 175.322 30.4667 176.755 29.6C178.222 28.7 179.922 28.25 181.855 28.25C184.788 28.25 187.088 29.2333 188.755 31.2C190.455 33.1333 191.305 35.8333 191.305 39.3V54H184.305V40.2C184.305 36.2667 182.688 34.3 179.455 34.3C177.822 34.3 176.505 34.8833 175.505 36.05C174.505 37.2167 174.005 38.7667 174.005 40.7V54H167.005ZM197.169 54V28.85H203.519V33.1H203.819C204.452 31.6333 205.486 30.4667 206.919 29.6C208.386 28.7 210.086 28.25 212.019 28.25C214.952 28.25 217.252 29.2333 218.919 31.2C220.619 33.1333 221.469 35.8333 221.469 39.3V54H214.469V40.2C214.469 36.2667 212.852 34.3 209.619 34.3C207.986 34.3 206.669 34.8833 205.669 36.05C204.669 37.2167 204.169 38.7667 204.169 40.7V54H197.169ZM233.483 54.4C231.05 54.4 229.117 53.75 227.683 52.45C226.25 51.15 225.533 49.3333 225.533 47C225.533 44.6333 226.367 42.7667 228.033 41.4C229.7 40.0333 231.95 39.2167 234.783 38.95L242.883 38.15L242.783 42.85L236.483 43.55C235.15 43.6833 234.167 43.9833 233.533 44.45C232.933 44.8833 232.633 45.5667 232.633 46.5C232.633 47.2333 232.867 47.85 233.333 48.35C233.833 48.85 234.633 49.1 235.733 49.1C236.9 49.1 237.933 48.8667 238.833 48.4C239.733 47.9333 240.45 47.2833 240.983 46.45C241.517 45.6167 241.783 44.65 241.783 43.55V38.2C241.783 36.8333 241.4 35.8 240.633 35.1C239.9 34.4 238.533 34.05 236.533 34.05C235.033 34.05 233.5 34.2333 231.933 34.6C230.4 34.9333 229.167 35.3333 228.233 35.8H227.933L228.933 29.85C230 29.4167 231.317 29.05 232.883 28.75C234.45 28.4167 236.1 28.25 237.833 28.25C241.6 28.25 244.367 29.1333 246.133 30.9C247.9 32.6667 248.783 35.2333 248.783 38.6V46.6C248.783 47.9 248.867 49.1833 249.033 50.45C249.233 51.7167 249.55 52.7833 249.983 53.65V54H243.433C243.233 53.5 243.05 52.8833 242.883 52.15C242.717 51.3833 242.617 50.6833 242.583 50.05H242.283C241.65 51.2833 240.55 52.3167 238.983 53.15C237.417 53.9833 235.583 54.4 233.483 54.4Z" fill="black"/>
</svg>
