<svg width="149" height="60" viewBox="0 0 149 60" fill="none" xmlns="http://www.w3.org/2000/svg">
<path d="M46.68 7.93728C41.1389 -0.0439279 30.1075 -2.38237 22.1772 2.65037L8.19734 11.5975C4.38466 13.9867 1.7412 17.9011 0.978664 22.3238C0.317799 26.0348 0.876992 29.8475 2.65624 33.1518C1.43619 34.9819 0.622814 37.0153 0.266963 39.1504C-0.546409 43.6748 0.521142 48.3517 3.1646 52.0627C8.75653 60.0439 19.7371 62.3824 27.6674 57.3496L41.6473 48.4534C45.4599 46.0641 48.1034 42.1497 48.8659 37.727C49.5268 34.016 48.9676 30.2033 47.1884 26.899C48.4084 25.0689 49.2218 23.0355 49.5776 20.9004C50.4418 16.3252 49.3743 11.6483 46.68 7.93728Z" fill="#EE302D"/>
<path d="M20.8046 52.8252C16.2802 53.9945 11.5525 52.2152 8.90904 48.4025C7.2823 46.1658 6.67227 43.3698 7.12979 40.6247C7.23146 40.1671 7.33313 39.7605 7.4348 39.3029L7.68898 38.4896L8.40068 38.9979C10.0783 40.218 11.9083 41.133 13.8909 41.7431L14.3993 41.8956L14.3485 42.4039C14.2976 43.1156 14.501 43.8782 14.9077 44.4882C15.721 45.6574 17.1444 46.2166 18.517 45.8607C18.822 45.7591 19.127 45.6574 19.3812 45.5049L33.3102 36.6086C34.0219 36.1511 34.4794 35.4903 34.6319 34.6769C34.7844 33.8635 34.5811 32.9993 34.1236 32.3384C33.3102 31.1692 31.8868 30.6609 30.5142 31.0167C30.2092 31.1184 29.9042 31.2201 29.65 31.3726L24.3123 34.7786C23.4481 35.3378 22.4822 35.7444 21.4655 35.9986C16.9411 37.1678 12.2134 35.3886 9.5699 31.5759C7.994 29.3391 7.33313 26.5432 7.84149 23.798C8.29901 21.1546 9.92575 18.7653 12.2134 17.3419L26.1932 8.44564C27.0574 7.88645 28.0233 7.47976 29.04 7.17475C33.5644 6.00552 38.2921 7.78477 40.9356 11.5975C42.5623 13.8342 43.1723 16.6302 42.7148 19.3753C42.6131 19.8328 42.5115 20.2395 42.359 20.6971L42.1048 21.5104L41.3931 21.0021C39.7155 19.782 37.8854 18.867 35.9028 18.2569L35.3945 18.1044L35.4453 17.5961C35.4961 16.8844 35.2928 16.1218 34.8861 15.5118C34.0727 14.3426 32.6493 13.8342 31.2768 14.1901C30.9718 14.2918 30.6667 14.3934 30.4126 14.5459L16.4836 23.4422C15.7719 23.8997 15.3143 24.5606 15.1618 25.3739C15.0093 26.1873 15.2127 27.0515 15.6702 27.7124C16.4836 28.8816 17.907 29.39 19.2795 29.0341C19.5845 28.9324 19.8896 28.8308 20.1437 28.6783L25.4815 25.2723C26.3457 24.7131 27.3116 24.3064 28.3283 24.0014C32.8527 22.8322 37.5804 24.6114 40.2239 28.4241C41.8506 30.6609 42.4606 33.4568 42.0031 36.202C41.5456 38.8454 39.9188 41.2347 37.6312 42.6581L23.6514 51.5544C22.7872 52.1135 21.8213 52.5202 20.8046 52.8252Z" fill="white"/>
<path d="M66.504 22.432C65.496 22.432 64.512 22.288 63.552 22C62.592 21.696 61.768 21.288 61.08 20.776L61.584 17.728H61.704C62.36 18.24 63.104 18.648 63.936 18.952C64.768 19.24 65.6 19.384 66.432 19.384C67.36 19.384 68.08 19.2 68.592 18.832C69.104 18.464 69.36 17.912 69.36 17.176C69.36 16.648 69.208 16.192 68.904 15.808C68.616 15.408 68.08 15.04 67.296 14.704L64.944 13.648C63.728 13.104 62.824 12.4 62.232 11.536C61.64 10.672 61.344 9.688 61.344 8.584C61.344 7.544 61.584 6.656 62.064 5.92C62.56 5.168 63.248 4.592 64.128 4.192C65.008 3.776 66.024 3.568 67.176 3.568C68.072 3.568 68.928 3.688 69.744 3.928C70.56 4.168 71.264 4.488 71.856 4.888L71.328 7.816H71.208C70.712 7.448 70.128 7.16 69.456 6.952C68.784 6.728 68.096 6.616 67.392 6.616C66.56 6.616 65.904 6.768 65.424 7.072C64.944 7.376 64.704 7.848 64.704 8.488C64.704 9.016 64.864 9.464 65.184 9.832C65.504 10.2 66.024 10.544 66.744 10.864L68.952 11.848C70.28 12.424 71.232 13.128 71.808 13.96C72.4 14.792 72.696 15.8 72.696 16.984C72.696 18.088 72.44 19.048 71.928 19.864C71.416 20.68 70.696 21.312 69.768 21.76C68.84 22.208 67.752 22.432 66.504 22.432ZM78.2715 22C77.5995 20.816 76.9675 19.544 76.3755 18.184C75.7995 16.808 75.2875 15.416 74.8395 14.008C74.4075 12.584 74.0635 11.224 73.8075 9.928H77.2875C77.5115 11.288 77.8555 12.728 78.3195 14.248C78.7995 15.768 79.3835 17.312 80.0715 18.88H80.2395C80.9435 17.312 81.5355 15.768 82.0155 14.248C82.4955 12.728 82.8395 11.288 83.0475 9.928H86.3595C86.1035 11.224 85.7515 12.584 85.3035 14.008C84.8715 15.416 84.3595 16.808 83.7675 18.184C83.1755 19.544 82.5355 20.816 81.8475 22H78.2715ZM88.0331 22V9.928H91.3931V22H88.0331ZM89.7131 7.984C89.0731 7.984 88.5531 7.792 88.1531 7.408C87.7531 7.008 87.5531 6.512 87.5531 5.92C87.5531 5.312 87.7531 4.816 88.1531 4.432C88.5531 4.048 89.0731 3.856 89.7131 3.856C90.3691 3.856 90.8891 4.048 91.2731 4.432C91.6731 4.816 91.8731 5.312 91.8731 5.92C91.8731 6.512 91.6731 7.008 91.2731 7.408C90.8891 7.792 90.3691 7.984 89.7131 7.984ZM99.9259 22.288C98.6139 22.288 97.4779 22.032 96.5179 21.52C95.5739 21.008 94.8459 20.28 94.3339 19.336C93.8219 18.392 93.5659 17.288 93.5659 16.024C93.5659 14.696 93.8299 13.56 94.3579 12.616C94.9019 11.656 95.6459 10.92 96.5899 10.408C97.5339 9.896 98.6059 9.64 99.8059 9.64C101.582 9.64 102.966 10.184 103.958 11.272C104.95 12.36 105.446 13.864 105.446 15.784V16.528L95.5819 17.632V15.208L103.814 14.296L102.182 15.424C102.182 14.336 101.958 13.552 101.51 13.072C101.078 12.576 100.486 12.328 99.7339 12.328C98.8699 12.328 98.1819 12.624 97.6699 13.216C97.1739 13.808 96.9259 14.696 96.9259 15.88C96.9259 17.208 97.2459 18.144 97.8859 18.688C98.5259 19.216 99.3819 19.48 100.454 19.48C101.238 19.48 102.022 19.376 102.806 19.168C103.59 18.96 104.182 18.728 104.582 18.472H104.75L104.27 21.352C103.822 21.592 103.198 21.808 102.398 22C101.598 22.192 100.774 22.288 99.9259 22.288ZM107.522 22V9.928H110.57V11.968H110.714C111.018 11.264 111.514 10.704 112.202 10.288C112.906 9.856 113.722 9.64 114.65 9.64C116.058 9.64 117.162 10.112 117.962 11.056C118.778 11.984 119.186 13.28 119.186 14.944V22H115.826V15.376C115.826 13.488 115.05 12.544 113.498 12.544C112.714 12.544 112.082 12.824 111.602 13.384C111.122 13.944 110.882 14.688 110.882 15.616V22H107.522ZM122.001 22V9.928H125.049V11.968H125.193C125.497 11.264 125.993 10.704 126.681 10.288C127.385 9.856 128.201 9.64 129.129 9.64C130.537 9.64 131.641 10.112 132.441 11.056C133.257 11.984 133.665 13.28 133.665 14.944V22H130.305V15.376C130.305 13.488 129.529 12.544 127.977 12.544C127.193 12.544 126.561 12.824 126.081 13.384C125.601 13.944 125.361 14.688 125.361 15.616V22H122.001ZM139.432 22.192C138.264 22.192 137.336 21.88 136.648 21.256C135.96 20.632 135.616 19.76 135.616 18.64C135.616 17.504 136.016 16.608 136.816 15.952C137.616 15.296 138.696 14.904 140.056 14.776L143.944 14.392L143.896 16.648L140.872 16.984C140.232 17.048 139.76 17.192 139.456 17.416C139.168 17.624 139.024 17.952 139.024 18.4C139.024 18.752 139.136 19.048 139.36 19.288C139.6 19.528 139.984 19.648 140.512 19.648C141.072 19.648 141.568 19.536 142 19.312C142.432 19.088 142.776 18.776 143.032 18.376C143.288 17.976 143.416 17.512 143.416 16.984V14.416C143.416 13.76 143.232 13.264 142.864 12.928C142.512 12.592 141.856 12.424 140.896 12.424C140.176 12.424 139.44 12.512 138.688 12.688C137.952 12.848 137.36 13.04 136.912 13.264H136.768L137.248 10.408C137.76 10.2 138.392 10.024 139.144 9.88C139.896 9.72 140.688 9.64 141.52 9.64C143.328 9.64 144.656 10.064 145.504 10.912C146.352 11.76 146.776 12.992 146.776 14.608V18.448C146.776 19.072 146.816 19.688 146.896 20.296C146.992 20.904 147.144 21.416 147.352 21.832V22H144.208C144.112 21.76 144.024 21.464 143.944 21.112C143.864 20.744 143.816 20.408 143.8 20.104H143.656C143.352 20.696 142.824 21.192 142.072 21.592C141.32 21.992 140.44 22.192 139.432 22.192Z" fill="white"/>
<path d="M64.591 42.243C64.042 42.243 63.5155 42.162 63.0115 42C62.5075 41.838 62.0575 41.604 61.6615 41.298L61.8235 40.11H61.891C62.26 40.416 62.683 40.6545 63.16 40.8255C63.637 40.9875 64.123 41.0685 64.618 41.0685C65.257 41.0685 65.7565 40.9245 66.1165 40.6365C66.4855 40.3485 66.67 39.939 66.67 39.408C66.67 39.039 66.562 38.7015 66.346 38.3955C66.139 38.0895 65.743 37.8105 65.158 37.5585L63.943 37.032C63.205 36.717 62.674 36.3255 62.35 35.8575C62.026 35.3805 61.864 34.854 61.864 34.278C61.864 33.729 61.9945 33.2565 62.2555 32.8605C62.5255 32.4645 62.8945 32.163 63.3625 31.956C63.8305 31.74 64.366 31.632 64.969 31.632C65.455 31.632 65.905 31.6995 66.319 31.8345C66.742 31.9695 67.12 32.154 67.453 32.388L67.264 33.522H67.1965C66.9175 33.297 66.5845 33.1215 66.1975 32.9955C65.8195 32.8695 65.4235 32.8065 65.0095 32.8065C64.4515 32.8065 63.997 32.9325 63.646 33.1845C63.304 33.4275 63.133 33.7875 63.133 34.2645C63.133 34.6335 63.25 34.9575 63.484 35.2365C63.727 35.5155 64.114 35.772 64.645 36.006L65.914 36.573C66.607 36.879 67.1155 37.257 67.4395 37.707C67.7635 38.148 67.9255 38.688 67.9255 39.327C67.9255 39.921 67.786 40.4385 67.507 40.8795C67.228 41.3115 66.8365 41.649 66.3325 41.892C65.8375 42.126 65.257 42.243 64.591 42.243ZM71.5229 42C71.1269 41.343 70.7534 40.6365 70.4024 39.8805C70.0514 39.1245 69.7409 38.355 69.4709 37.572C69.2009 36.78 68.9804 36.0195 68.8094 35.2905H70.0784C70.2854 36.2175 70.5689 37.158 70.9289 38.112C71.2979 39.066 71.7029 39.9885 72.1439 40.8795H72.2114C72.6614 39.9885 73.0709 39.066 73.4399 38.112C73.8089 37.158 74.0969 36.2175 74.3039 35.2905H75.5189C75.3479 36.0195 75.1274 36.78 74.8574 37.572C74.5874 38.355 74.2769 39.1245 73.9259 39.8805C73.5749 40.6365 73.1924 41.343 72.7784 42H71.5229ZM79.6037 42.162C78.8927 42.162 78.2807 42.018 77.7677 41.73C77.2547 41.433 76.8587 41.0235 76.5797 40.5015C76.3007 39.9705 76.1612 39.3585 76.1612 38.6655C76.1612 37.9455 76.3007 37.3245 76.5797 36.8025C76.8677 36.2715 77.2637 35.862 77.7677 35.574C78.2717 35.277 78.8522 35.1285 79.5092 35.1285C80.4452 35.1285 81.1742 35.4255 81.6962 36.0195C82.2182 36.6135 82.4792 37.41 82.4792 38.409V38.706L76.9037 39.4215L76.8902 38.3955L81.9122 37.7475L81.2507 38.301C81.2507 37.572 81.0797 37.0365 80.7377 36.6945C80.4047 36.3435 79.9682 36.168 79.4282 36.168C78.8162 36.168 78.3302 36.384 77.9702 36.816C77.6102 37.239 77.4302 37.842 77.4302 38.625C77.4302 39.498 77.6552 40.1325 78.1052 40.5285C78.5552 40.9245 79.1222 41.1225 79.8062 41.1225C80.2112 41.1225 80.6207 41.064 81.0347 40.947C81.4487 40.821 81.7817 40.668 82.0337 40.488H82.1012L81.9392 41.5545C81.7142 41.6985 81.3947 41.838 80.9807 41.973C80.5667 42.099 80.1077 42.162 79.6037 42.162ZM84.0156 42V31.47H85.2306V42H84.0156ZM90.6749 42.0405H89.9864C89.2934 42.0405 88.7399 41.8065 88.3259 41.3385C87.9209 40.8615 87.7184 40.2225 87.7184 39.4215V33.198H88.9334V39.2595C88.9334 39.8625 89.0549 40.308 89.2979 40.596C89.5499 40.875 89.9414 41.0145 90.4724 41.0145H90.8639L90.6749 42.0405ZM86.3414 36.3435V35.2905H90.8639L90.6749 36.3435H86.3414ZM95.0549 42.162C94.3439 42.162 93.7319 42.018 93.2189 41.73C92.7059 41.433 92.3099 41.0235 92.0309 40.5015C91.7519 39.9705 91.6124 39.3585 91.6124 38.6655C91.6124 37.9455 91.7519 37.3245 92.0309 36.8025C92.3189 36.2715 92.7149 35.862 93.2189 35.574C93.7229 35.277 94.3034 35.1285 94.9604 35.1285C95.8964 35.1285 96.6254 35.4255 97.1474 36.0195C97.6694 36.6135 97.9304 37.41 97.9304 38.409V38.706L92.3549 39.4215L92.3414 38.3955L97.3634 37.7475L96.7019 38.301C96.7019 37.572 96.5309 37.0365 96.1889 36.6945C95.8559 36.3435 95.4194 36.168 94.8794 36.168C94.2674 36.168 93.7814 36.384 93.4214 36.816C93.0614 37.239 92.8814 37.842 92.8814 38.625C92.8814 39.498 93.1064 40.1325 93.5564 40.5285C94.0064 40.9245 94.5734 41.1225 95.2574 41.1225C95.6624 41.1225 96.0719 41.064 96.4859 40.947C96.8999 40.821 97.2329 40.668 97.4849 40.488H97.5524L97.3904 41.5545C97.1654 41.6985 96.8459 41.838 96.4319 41.973C96.0179 42.099 95.5589 42.162 95.0549 42.162ZM105.078 42.243C104.529 42.243 104.002 42.162 103.498 42C102.994 41.838 102.544 41.604 102.148 41.298L102.31 40.11H102.378C102.747 40.416 103.17 40.6545 103.647 40.8255C104.124 40.9875 104.61 41.0685 105.105 41.0685C105.744 41.0685 106.243 40.9245 106.603 40.6365C106.972 40.3485 107.157 39.939 107.157 39.408C107.157 39.039 107.049 38.7015 106.833 38.3955C106.626 38.0895 106.23 37.8105 105.645 37.5585L104.43 37.032C103.692 36.717 103.161 36.3255 102.837 35.8575C102.513 35.3805 102.351 34.854 102.351 34.278C102.351 33.729 102.481 33.2565 102.742 32.8605C103.012 32.4645 103.381 32.163 103.849 31.956C104.317 31.74 104.853 31.632 105.456 31.632C105.942 31.632 106.392 31.6995 106.806 31.8345C107.229 31.9695 107.607 32.154 107.94 32.388L107.751 33.522H107.683C107.404 33.297 107.071 33.1215 106.684 32.9955C106.306 32.8695 105.91 32.8065 105.496 32.8065C104.938 32.8065 104.484 32.9325 104.133 33.1845C103.791 33.4275 103.62 33.7875 103.62 34.2645C103.62 34.6335 103.737 34.9575 103.971 35.2365C104.214 35.5155 104.601 35.772 105.132 36.006L106.401 36.573C107.094 36.879 107.602 37.257 107.926 37.707C108.25 38.148 108.412 38.688 108.412 39.327C108.412 39.921 108.273 40.4385 107.994 40.8795C107.715 41.3115 107.323 41.649 106.819 41.892C106.324 42.126 105.744 42.243 105.078 42.243ZM113.117 42.162C112.442 42.162 111.843 42.0135 111.321 41.7165C110.799 41.4195 110.39 41.01 110.093 40.488C109.805 39.957 109.661 39.3405 109.661 38.6385C109.661 37.9365 109.805 37.3245 110.093 36.8025C110.39 36.2715 110.799 35.862 111.321 35.574C111.843 35.277 112.442 35.1285 113.117 35.1285C113.801 35.1285 114.399 35.277 114.912 35.574C115.434 35.862 115.839 36.2715 116.127 36.8025C116.424 37.3245 116.573 37.9365 116.573 38.6385C116.573 39.3405 116.424 39.957 116.127 40.488C115.839 41.01 115.434 41.4195 114.912 41.7165C114.399 42.0135 113.801 42.162 113.117 42.162ZM113.117 41.082C113.765 41.082 114.296 40.8615 114.71 40.4205C115.124 39.9705 115.331 39.3765 115.331 38.6385C115.331 37.9005 115.124 37.311 114.71 36.87C114.296 36.429 113.765 36.2085 113.117 36.2085C112.469 36.2085 111.938 36.429 111.524 36.87C111.11 37.311 110.903 37.9005 110.903 38.6385C110.903 39.3765 111.11 39.9705 111.524 40.4205C111.938 40.8615 112.469 41.082 113.117 41.082ZM121.064 42.162C120.407 42.162 119.822 42.0135 119.309 41.7165C118.805 41.4195 118.409 41.0055 118.121 40.4745C117.842 39.9435 117.703 39.336 117.703 38.652C117.703 37.95 117.847 37.3335 118.135 36.8025C118.432 36.2715 118.841 35.862 119.363 35.574C119.894 35.277 120.502 35.1285 121.186 35.1285C121.6 35.1285 121.973 35.1825 122.306 35.2905C122.648 35.3985 122.941 35.529 123.184 35.682L123.008 36.708H122.941C122.743 36.555 122.504 36.4335 122.225 36.3435C121.946 36.2535 121.631 36.2085 121.28 36.2085C120.83 36.2085 120.425 36.312 120.065 36.519C119.714 36.717 119.44 36.996 119.242 37.356C119.044 37.716 118.945 38.1435 118.945 38.6385C118.945 39.3855 119.156 39.9795 119.579 40.4205C120.002 40.8615 120.556 41.082 121.24 41.082C121.591 41.082 121.919 41.037 122.225 40.947C122.54 40.848 122.824 40.7265 123.076 40.5825H123.143L122.968 41.6895C122.761 41.8065 122.491 41.9145 122.158 42.0135C121.825 42.1125 121.46 42.162 121.064 42.162ZM124.727 42V35.2905H125.942V42H124.727ZM125.334 33.8325C125.073 33.8325 124.857 33.756 124.686 33.603C124.524 33.441 124.443 33.234 124.443 32.982C124.443 32.73 124.524 32.5275 124.686 32.3745C124.857 32.2125 125.073 32.1315 125.334 32.1315C125.595 32.1315 125.807 32.2125 125.969 32.3745C126.14 32.5275 126.225 32.73 126.225 32.982C126.225 33.234 126.14 33.441 125.969 33.603C125.807 33.756 125.595 33.8325 125.334 33.8325ZM130.954 42.162C130.243 42.162 129.631 42.018 129.118 41.73C128.605 41.433 128.209 41.0235 127.93 40.5015C127.651 39.9705 127.511 39.3585 127.511 38.6655C127.511 37.9455 127.651 37.3245 127.93 36.8025C128.218 36.2715 128.614 35.862 129.118 35.574C129.622 35.277 130.202 35.1285 130.859 35.1285C131.795 35.1285 132.524 35.4255 133.046 36.0195C133.568 36.6135 133.829 37.41 133.829 38.409V38.706L128.254 39.4215L128.24 38.3955L133.262 37.7475L132.601 38.301C132.601 37.572 132.43 37.0365 132.088 36.6945C131.755 36.3435 131.318 36.168 130.778 36.168C130.166 36.168 129.68 36.384 129.32 36.816C128.96 37.239 128.78 37.842 128.78 38.625C128.78 39.498 129.005 40.1325 129.455 40.5285C129.905 40.9245 130.472 41.1225 131.156 41.1225C131.561 41.1225 131.971 41.064 132.385 40.947C132.799 40.821 133.132 40.668 133.384 40.488H133.451L133.289 41.5545C133.064 41.6985 132.745 41.838 132.331 41.973C131.917 42.099 131.458 42.162 130.954 42.162ZM138.808 42.0405H138.12C137.427 42.0405 136.873 41.8065 136.459 41.3385C136.054 40.8615 135.852 40.2225 135.852 39.4215V33.198H137.067V39.2595C137.067 39.8625 137.188 40.308 137.431 40.596C137.683 40.875 138.075 41.0145 138.606 41.0145H138.997L138.808 42.0405ZM134.475 36.3435V35.2905H138.997L138.808 36.3435H134.475ZM140.629 45.375V45.3075L142.438 42C142.042 41.388 141.668 40.713 141.317 39.975C140.975 39.237 140.665 38.472 140.386 37.68C140.116 36.879 139.891 36.0825 139.711 35.2905H140.966C141.164 36.2355 141.448 37.1895 141.817 38.1525C142.186 39.1155 142.6 40.02 143.059 40.866H143.126C143.594 39.948 144.013 39.0345 144.382 38.1255C144.751 37.2165 145.039 36.2715 145.246 35.2905H146.474C146.222 36.4335 145.867 37.545 145.408 38.625C144.949 39.696 144.4 40.821 143.761 42L141.911 45.375H140.629ZM66.319 57H64.996C64.618 56.28 64.249 55.497 63.889 54.651C63.529 53.796 63.187 52.923 62.863 52.032C62.539 51.132 62.2465 50.2455 61.9855 49.3725C61.7245 48.4905 61.513 47.658 61.351 46.875H62.7145C62.9125 47.811 63.16 48.7875 63.457 49.8045C63.754 50.8215 64.087 51.834 64.456 52.842C64.834 53.85 65.23 54.8085 65.644 55.7175H65.7115C66.1345 54.8085 66.5305 53.85 66.8995 52.842C67.2685 51.834 67.6015 50.8215 67.8985 49.8045C68.2045 48.7875 68.452 47.811 68.641 46.875H69.964C69.802 47.658 69.5905 48.4905 69.3295 49.3725C69.0685 50.2455 68.776 51.132 68.452 52.032C68.128 52.923 67.786 53.796 67.426 54.651C67.066 55.497 66.697 56.28 66.319 57ZM71.3198 57V50.2905H72.5348V57H71.3198ZM71.9273 48.8325C71.6663 48.8325 71.4503 48.756 71.2793 48.603C71.1173 48.441 71.0363 48.234 71.0363 47.982C71.0363 47.73 71.1173 47.5275 71.2793 47.3745C71.4503 47.2125 71.6663 47.1315 71.9273 47.1315C72.1883 47.1315 72.3998 47.2125 72.5618 47.3745C72.7328 47.5275 72.8183 47.73 72.8183 47.982C72.8183 48.234 72.7328 48.441 72.5618 48.603C72.3998 48.756 72.1883 48.8325 71.9273 48.8325ZM77.5471 57.162C76.8361 57.162 76.2241 57.018 75.7111 56.73C75.1981 56.433 74.8021 56.0235 74.5231 55.5015C74.2441 54.9705 74.1046 54.3585 74.1046 53.6655C74.1046 52.9455 74.2441 52.3245 74.5231 51.8025C74.8111 51.2715 75.2071 50.862 75.7111 50.574C76.2151 50.277 76.7956 50.1285 77.4526 50.1285C78.3886 50.1285 79.1176 50.4255 79.6396 51.0195C80.1616 51.6135 80.4226 52.41 80.4226 53.409V53.706L74.8471 54.4215L74.8336 53.3955L79.8556 52.7475L79.1941 53.301C79.1941 52.572 79.0231 52.0365 78.6811 51.6945C78.3481 51.3435 77.9116 51.168 77.3716 51.168C76.7596 51.168 76.2736 51.384 75.9136 51.816C75.5536 52.239 75.3736 52.842 75.3736 53.625C75.3736 54.498 75.5986 55.1325 76.0486 55.5285C76.4986 55.9245 77.0656 56.1225 77.7496 56.1225C78.1546 56.1225 78.5641 56.064 78.9781 55.947C79.3921 55.821 79.7251 55.668 79.9771 55.488H80.0446L79.8826 56.5545C79.6576 56.6985 79.3381 56.838 78.9241 56.973C78.5101 57.099 78.0511 57.162 77.5471 57.162ZM81.959 57V50.2905H83.0795V51.5325H83.147C83.336 51.0915 83.633 50.7495 84.038 50.5065C84.452 50.2545 84.929 50.1285 85.469 50.1285C86.279 50.1285 86.918 50.3985 87.386 50.9385C87.854 51.4785 88.088 52.221 88.088 53.166V57H86.873V53.355C86.873 51.924 86.3015 51.2085 85.1585 51.2085C84.5825 51.2085 84.1055 51.42 83.7275 51.843C83.3585 52.266 83.174 52.8105 83.174 53.4765V57H81.959ZM90.0141 57V50.2905H91.1346V51.5325H91.2021C91.3911 51.0915 91.6881 50.7495 92.0931 50.5065C92.5071 50.2545 92.9841 50.1285 93.5241 50.1285C94.3341 50.1285 94.9731 50.3985 95.4411 50.9385C95.9091 51.4785 96.1431 52.221 96.1431 53.166V57H94.9281V53.355C94.9281 51.924 94.3566 51.2085 93.2136 51.2085C92.6376 51.2085 92.1606 51.42 91.7826 51.843C91.4136 52.266 91.2291 52.8105 91.2291 53.4765V57H90.0141ZM99.6623 57.108C99.0143 57.108 98.5013 56.9325 98.1233 56.5815C97.7453 56.2305 97.5563 55.7535 97.5563 55.1505C97.5563 54.5295 97.7543 54.039 98.1503 53.679C98.5463 53.319 99.1268 53.103 99.8918 53.031L102.403 52.788L102.389 53.733L100.135 53.9625C99.6758 54.0075 99.3338 54.1245 99.1088 54.3135C98.8838 54.4935 98.7713 54.75 98.7713 55.083C98.7713 55.389 98.8658 55.632 99.0548 55.812C99.2438 55.983 99.5318 56.0685 99.9188 56.0685C100.351 56.0685 100.733 55.983 101.066 55.812C101.408 55.632 101.674 55.389 101.863 55.083C102.061 54.777 102.16 54.4305 102.16 54.0435V52.6935C102.16 52.1625 102.02 51.7755 101.741 51.5325C101.471 51.2895 101.03 51.168 100.418 51.168C100.067 51.168 99.6938 51.222 99.2978 51.33C98.9018 51.429 98.5553 51.564 98.2583 51.735H98.1908L98.3393 50.6415C98.6723 50.4795 99.0413 50.3535 99.4463 50.2635C99.8603 50.1735 100.279 50.1285 100.702 50.1285C101.584 50.1285 102.25 50.3445 102.7 50.7765C103.15 51.2085 103.375 51.852 103.375 52.707V54.948C103.375 55.344 103.402 55.713 103.456 56.055C103.51 56.388 103.591 56.6805 103.699 56.9325V57H102.538C102.484 56.847 102.434 56.649 102.389 56.406C102.344 56.154 102.313 55.929 102.295 55.731H102.227C102.056 56.136 101.737 56.469 101.269 56.73C100.801 56.982 100.265 57.108 99.6623 57.108Z" fill="white"/>
</svg>
