<svg xmlns="http://www.w3.org/2000/svg" viewBox="0 0 265.4 150.2" id="emakina-logo">
    <style>#emakina-logo .st0{fill:#fff}</style>
    <path transform="rotate(-180 147.912 64.684)" class="st0" d="M144.1 45.6h7.6v38.1h-7.6z" />
    <path transform="rotate(-180 132.685 64.684)" class="st0" d="M128.9 45.6h7.6v38.1h-7.6z" />
    <path transform="rotate(-180 117.458 64.684)" class="st0" d="M113.7 45.6h7.6v38.1h-7.6z" />
    <path transform="rotate(90 132.685 3.807)" class="st0" d="M128.9-15.2h7.6v38.1h-7.6z" />
    <path transform="rotate(90 132.685 19.034)" class="st0" d="M128.9 0h7.6v38.1h-7.6z" />
    <path transform="rotate(90 132.685 34.26)" class="st0" d="M128.9 15.2h7.6v38.1h-7.6z" />
    <path class="st0" d="M37.9 120.9h5.7L58 138.3l14.3-17.4H78v29.3h-6.6V130l-13.1 16.7h-1.4l-13.3-16.2v19.7h-5.7zm43.8 29.3h7.2l3.7-6.4H112l3.7 6.4h8L106 120.9h-6.9l-17.4 29.3zm13.9-11.8l6.6-12.2 6.9 12.2H95.6zm31.7-17.5h7.3v11.8l17.1-11.8H162l-20.2 13.6 22.5 15.7H153L134.6 137v13.2h-7.3zm41 0h7.1v29.3h-7.1zm15.4 0h5l24.9 19.5v-19.5h6.4v29.3h-4.9l-24.9-19.8v19.8h-6.5zm39.7 29.3h7.1l3.7-6.4h19.4l3.7 6.4h8l-17.7-29.3h-6.9l-17.3 29.3zm13.9-11.8l6.6-12.2 6.9 12.2h-13.5zM0 120.9v29.3h32.4v-5.5H7.2v-7.2h21v-5.1h-21v-6.3h25.2v-5.2z" />
</svg>