<svg width="83" height="80" viewBox="0 0 83 80"
 fill="none" xmlns="http://www.w3.org/2000/svg">
 <title>LEAN-CODERS Logo</title>
 <path opacity="0.98" d="M75.2465 65.9529V75.0494H4.96661V4.9536H75.2465V14.0471H80.2101V0H0V80H80.2101V65.9529H75.2465Z" fill="#ffffff"></path>
 <path d="M29.2942 55.8621H50.916V50.897H34.7129V24.8276H29.2942V55.8621Z" fill="currentcolor" style="color:var(--logo-accent, #ffffff)"></path>
 <path d="M83 50.429L79.4648 46.9252C78.2432 48.0651 76.8752 49.0443 75.3954 49.8382C73.8713 50.5876 72.1816 50.9561 70.4768 50.911C69.0504 50.9252 67.6381 50.6343 66.3384 50.0586C65.0909 49.5023 63.9727 48.702 63.0523 47.7071C62.1151 46.692 61.3865 45.5093 60.9066 44.2239C60.3919 42.8569 60.1337 41.4099 60.1443 39.9529C60.1326 38.5035 60.3909 37.0641 60.9066 35.7055C61.3863 34.4332 62.1152 33.2649 63.0523 32.2664C63.9792 31.2862 65.0964 30.4967 66.3384 29.9443C67.6379 29.3675 69.0502 29.0756 70.4768 29.0889C72.1404 29.0569 73.7874 29.4178 75.2784 30.1412C76.7292 30.8759 78.0685 31.8049 79.2577 32.9013L82.7899 28.9155C82.0492 28.2164 81.2568 27.5719 80.4191 26.9872C79.5658 26.3922 78.6516 25.8859 77.6912 25.4764C76.6496 25.0356 75.5632 24.7045 74.4501 24.4887C73.1646 24.2466 71.8578 24.1295 70.5488 24.1389C68.3076 24.1115 66.0846 24.5368 64.0186 25.3882C60.1584 26.9876 57.1195 30.0436 55.5888 33.8654C54.0009 37.8522 54.0084 42.2793 55.6098 46.2609C56.3674 48.1298 57.4897 49.8361 58.9139 51.2843C60.3511 52.7135 62.0611 53.8521 63.9466 54.6353C65.9552 55.4658 68.1166 55.883 70.2967 55.861C71.6408 55.8728 72.9824 55.7476 74.3001 55.4877C75.4523 55.2596 76.5713 54.8923 77.6312 54.3942C78.6341 53.9189 79.5861 53.3468 80.4731 52.6864C81.3781 52.0042 82.2233 51.2491 83 50.429Z" fill="currentcolor" style="color:var(--logo-base, #ffffff)"></path>
 </svg>