<?xml version="1.0" encoding="UTF-8" standalone="no"?>
<!-- Created with Inkscape (http://www.inkscape.org/) -->

<svg
   width="210.97862mm"
   height="79.828827mm"
   viewBox="0 0 210.97862 79.828827"
   version="1.1"
   id="svg1"
   xmlns="http://www.w3.org/2000/svg"
   xmlns:svg="http://www.w3.org/2000/svg">
  <defs
     id="defs1" />
  <g
     id="layer1"
     transform="translate(0.97861909,-2.1178194)">
    <g
       id="text1-2-6-6-8"
       style="font-weight:800;font-size:24px;line-height:0.6;font-family:'JetBrains Mono';-inkscape-font-specification:'JetBrains Mono Ultra-Bold';white-space:pre"
       transform="matrix(1.7000061,0,0,1.7000061,-271.27064,-223.44134)"
       aria-label="ahead&#10;of_time_software">
      <path
         style="font-size:42.6667px;font-family:'Geist Mono';-inkscape-font-specification:'Geist Mono Ultra-Bold';text-align:center;text-anchor:middle;fill:#ffffff"
         d="m 166.63207,163.48674 q -2.09066,0 -3.84,-0.768 -1.74933,-0.768 -2.77333,-2.21867 -1.024,-1.49333 -1.024,-3.584 0,-2.85867 1.87733,-4.48001 1.92,-1.664 4.992,-2.34666 l 6.65601,-1.45067 q 0,-1.92 -0.72533,-2.98667 -0.72534,-1.10934 -2.51734,-1.10934 -1.57867,0 -2.38933,0.85334 -0.76801,0.81067 -0.98134,1.96267 l -6.69867,-0.34134 q 0.64,-3.41333 3.28534,-5.46133 2.64533,-2.04801 6.61333,-2.04801 5.24801,0 7.59468,2.51734 2.34666,2.47467 2.34666,7.04 v 7.59468 q 0,0.896 0.29867,1.23733 0.29867,0.34133 0.85334,0.34133 h 0.768 v 4.73601 q -0.256,0.0427 -0.89601,0.128 -0.59733,0.0853 -1.23733,0.0853 -2.26133,0 -3.62667,-0.98133 -1.36533,-0.98134 -1.87733,-2.73067 -0.68267,1.74933 -2.43201,2.90133 -1.70666,1.10934 -4.26667,1.10934 z m 1.45067,-4.736 q 2.09067,0 3.24267,-1.15201 1.19467,-1.19466 1.19467,-3.37066 v -1.15201 l -4.43734,1.024 q -1.32266,0.29867 -1.87733,0.89601 -0.512,0.55466 -0.512,1.664 0,2.09067 2.38933,2.09067 z m 17.7067,4.224 v -30.29336 h 6.528 v 10.45334 q 0.93867,-1.87733 2.56,-2.73067 1.66401,-0.896 3.84001,-0.896 3.49867,0 5.12,2.34667 1.664,2.304 1.664,6.31467 v 14.80535 h -6.528 v -13.56801 q 0,-2.47467 -0.81067,-3.456 -0.768,-0.98134 -2.13333,-0.98134 -1.57867,0 -2.64534,1.23734 -1.06667,1.23733 -1.06667,3.712 v 13.05601 z m 35.45604,0.512 q -3.24267,0 -5.71734,-1.45067 -2.47467,-1.49333 -3.88267,-4.18134 -1.408,-2.688 -1.408,-6.35733 0,-3.54134 1.36534,-6.22934 1.408,-2.73067 3.88267,-4.224 2.47466,-1.53601 5.71733,-1.53601 3.20001,0 5.67467,1.53601 2.47467,1.49333 3.88267,4.224 1.40801,2.73067 1.40801,6.35734 v 1.57866 h -15.27468 q 0.256,2.21867 1.45066,3.41334 1.19467,1.19467 3.07201,1.19467 1.36533,0 2.34667,-0.64 1.024,-0.68267 1.45066,-1.83467 l 6.44267,0.46933 q -2.56,7.68001 -10.41067,7.68001 z m -4.224,-14.46401 h 8.14934 q -0.17067,-1.87734 -1.28,-2.85867 -1.06667,-0.98133 -2.77334,-0.98133 -1.70667,0 -2.77334,0.98133 -1.06666,0.98133 -1.32266,2.85867 z m 26.4107,14.46401 q -2.09067,0 -3.84001,-0.768 -1.74933,-0.768 -2.77333,-2.21867 -1.024,-1.49333 -1.024,-3.584 0,-2.85867 1.87733,-4.48001 1.92,-1.664 4.99201,-2.34666 l 6.656,-1.45067 q 0,-1.92 -0.72533,-2.98667 -0.72534,-1.10934 -2.51734,-1.10934 -1.57867,0 -2.38933,0.85334 -0.768,0.81067 -0.98134,1.96267 l -6.69867,-0.34134 q 0.64,-3.41333 3.28534,-5.46133 2.64533,-2.04801 6.61334,-2.04801 5.248,0 7.59467,2.51734 2.34667,2.47467 2.34667,7.04 v 7.59468 q 0,0.896 0.29866,1.23733 0.29867,0.34133 0.85334,0.34133 h 0.768 v 4.73601 q -0.256,0.0427 -0.896,0.128 -0.59734,0.0853 -1.23734,0.0853 -2.26133,0 -3.62667,-0.98133 -1.36533,-0.98134 -1.87733,-2.73067 -0.68267,1.74933 -2.432,2.90133 -1.70667,1.10934 -4.26667,1.10934 z m 1.45066,-4.736 q 2.09067,0 3.24267,-1.15201 1.19467,-1.19466 1.19467,-3.37066 v -1.15201 l -4.43734,1.024 q -1.32266,0.29867 -1.87733,0.89601 -0.512,0.55466 -0.512,1.664 0,2.09067 2.38933,2.09067 z m 24.61871,4.736 q -4.05334,0 -6.48534,-3.11467 -2.432,-3.11467 -2.432,-8.87467 0,-5.76001 2.432,-8.87468 2.432,-3.11467 6.48534,-3.11467 2.38933,0 4.096,1.024 1.74934,1.02401 2.56,2.73067 v -10.58134 h 6.52801 v 30.29336 h -6.31467 l -0.17067,-3.66934 q -0.85333,1.792 -2.56,2.98667 -1.664,1.19467 -4.13867,1.19467 z m 2.13333,-5.67467 q 2.00534,0 3.24267,-1.62134 1.28,-1.62133 1.28,-4.69333 0,-3.07201 -1.23733,-4.69334 -1.23734,-1.62133 -3.28534,-1.62133 -4.30933,0 -4.30933,6.31467 0,6.31467 4.30933,6.31467 z"
         id="path11" />
      <path
         style="font-size:13.0179px;font-family:'Geist Mono';-inkscape-font-specification:'Geist Mono Ultra-Bold';text-align:center;text-anchor:middle;fill:#ffffff"
         d="m 162.57956,178.02513 q -1.00237,0 -1.75741,-0.44261 -0.75504,-0.45563 -1.18463,-1.27575 -0.41657,-0.82013 -0.41657,-1.93967 0,-1.11954 0.41657,-1.93967 0.42959,-0.82013 1.18463,-1.26274 0.75504,-0.45562 1.75741,-0.45562 1.00238,0 1.75742,0.45562 0.75504,0.44261 1.17161,1.26274 0.42959,0.82013 0.42959,1.93967 0,1.11954 -0.42959,1.93967 -0.41657,0.82012 -1.17161,1.27575 -0.75504,0.44261 -1.75742,0.44261 z m 0,-1.73138 q 0.62486,0 0.96333,-0.49468 0.33846,-0.49468 0.33846,-1.43197 0,-0.93729 -0.33846,-1.43197 -0.33847,-0.49468 -0.96333,-0.49468 -0.62485,0 -0.96332,0.49468 -0.33847,0.49468 -0.33847,1.43197 0,0.93729 0.33847,1.43197 0.33847,0.49468 0.96332,0.49468 z m 6.43085,1.57516 v -5.4545 h -1.71836 v -1.54913 h 1.71836 v -0.10414 q 0,-1.10652 0.5077,-1.61422 0.52072,-0.52072 1.62724,-0.52072 h 2.34322 v 1.54913 h -1.79647 q -0.3645,0 -0.53373,0.15622 -0.15622,0.1432 -0.15622,0.44261 v 0.0911 h 2.46038 v 1.54913 h -2.46038 v 5.4545 z m 6.11842,1.77044 v -1.77044 h 6.14445 v 1.77044 z m 11.82026,-1.77044 q -1.2367,0 -1.80949,-0.55977 -0.57279,-0.55977 -0.57279,-1.71836 v -3.17637 h -1.91363 v -1.54913 h 1.91363 v -1.64025 h 1.99174 v 1.64025 h 2.52547 v 1.54913 h -2.52547 v 2.95507 q 0,0.9503 0.95031,0.9503 h 1.57516 v 1.54913 z m 3.80123,0 v -1.54913 h 2.53849 v -3.90537 h -2.40831 v -1.54913 h 4.38703 v 5.4545 h 2.14796 v 1.54913 z m 2.49944,-7.7847 v -1.62724 h 2.00475 v 1.62724 z m 4.79059,7.7847 v -7.00363 h 1.58818 l 0.0391,1.05445 q 0.40355,-1.21066 1.32782,-1.21066 0.54676,0 0.83315,0.31243 0.28639,0.31243 0.41657,0.93729 0.20829,-0.62486 0.59883,-0.93729 0.39053,-0.31243 0.92427,-0.31243 1.458,0 1.458,2.22606 v 4.93378 h -1.84854 v -4.50419 q 0,-0.59882 -0.0911,-0.79409 -0.0911,-0.19527 -0.29941,-0.19527 -0.23432,0 -0.37752,0.23432 -0.14319,0.22131 -0.14319,0.75504 v 4.50419 h -1.6663 v -4.50419 q 0,-0.57279 -0.10414,-0.78107 -0.0911,-0.20829 -0.31243,-0.20829 -0.24734,0 -0.37752,0.23432 -0.11716,0.22131 -0.11716,0.75504 v 4.50419 z m 11.42972,0.15622 q -0.98936,0 -1.7444,-0.44261 -0.75504,-0.45563 -1.18463,-1.27575 -0.42959,-0.82013 -0.42959,-1.93967 0,-1.08049 0.41658,-1.90061 0.42959,-0.83315 1.18463,-1.28878 0.75503,-0.46864 1.74439,-0.46864 0.97635,0 1.73138,0.46864 0.75504,0.45563 1.18463,1.28878 0.42959,0.83314 0.42959,1.93966 v 0.48166 h -4.6604 q 0.0781,0.67694 0.4426,1.04144 0.36451,0.3645 0.93729,0.3645 0.41658,0 0.71599,-0.19527 0.31243,-0.20829 0.44261,-0.55977 l 1.9657,0.1432 q -0.78107,2.34322 -3.17637,2.34322 z m -1.28877,-4.41307 h 2.48642 q -0.0521,-0.57279 -0.39054,-0.8722 -0.32545,-0.29941 -0.84616,-0.29941 -0.52072,0 -0.84617,0.29941 -0.32544,0.29941 -0.40355,0.8722 z m 6.00126,6.02729 v -1.77044 h 6.14445 v 1.77044 z m 10.93504,-1.61422 q -1.05445,0 -1.73138,-0.31243 -0.67693,-0.32545 -1.04143,-0.85918 -0.35149,-0.53374 -0.41658,-1.18463 l 1.93967,-0.0651 q 0.11716,0.3645 0.39054,0.5858 0.28639,0.20829 0.8722,0.20829 0.55977,0 0.79409,-0.11716 0.23432,-0.11716 0.23432,-0.35148 0,-0.15622 -0.0911,-0.26036 -0.0781,-0.11716 -0.33846,-0.20829 -0.24734,-0.10414 -0.76806,-0.20828 -1.06746,-0.23433 -1.70534,-0.52072 -0.63788,-0.28639 -0.91125,-0.70297 -0.27338,-0.42959 -0.27338,-1.0935 0,-0.61184 0.31243,-1.10652 0.32545,-0.5077 0.97634,-0.80711 0.6509,-0.31243 1.65327,-0.31243 1.10653,0 1.77044,0.35148 0.67693,0.33847 0.98936,0.88522 0.32545,0.54675 0.40355,1.14557 l -1.9657,0.0781 q -0.0651,-0.37752 -0.37752,-0.59882 -0.29941,-0.23432 -0.80711,-0.23432 -0.49468,0 -0.71598,0.19526 -0.20829,0.18226 -0.20829,0.40356 0,0.20829 0.11716,0.35148 0.13018,0.13018 0.45563,0.24734 0.33846,0.11716 0.96332,0.24734 0.98936,0.22131 1.54913,0.48167 0.55977,0.26035 0.78108,0.65089 0.23432,0.37752 0.23432,0.97634 0,0.98936 -0.79409,1.56215 -0.78108,0.57279 -2.29115,0.57279 z m 7.75867,0 q -1.00238,0 -1.75741,-0.44261 -0.75504,-0.45563 -1.18463,-1.27575 -0.41658,-0.82013 -0.41658,-1.93967 0,-1.11954 0.41658,-1.93967 0.42959,-0.82013 1.18463,-1.26274 0.75503,-0.45562 1.75741,-0.45562 1.00238,0 1.75742,0.45562 0.75504,0.44261 1.17161,1.26274 0.42959,0.82013 0.42959,1.93967 0,1.11954 -0.42959,1.93967 -0.41657,0.82012 -1.17161,1.27575 -0.75504,0.44261 -1.75742,0.44261 z m 0,-1.73138 q 0.62486,0 0.96333,-0.49468 0.33846,-0.49468 0.33846,-1.43197 0,-0.93729 -0.33846,-1.43197 -0.33847,-0.49468 -0.96333,-0.49468 -0.62486,0 -0.96332,0.49468 -0.33847,0.49468 -0.33847,1.43197 0,0.93729 0.33847,1.43197 0.33846,0.49468 0.96332,0.49468 z m 6.43085,1.57516 v -5.4545 h -1.71836 v -1.54913 h 1.71836 v -0.10414 q 0,-1.10652 0.5077,-1.61422 0.52071,-0.52072 1.62724,-0.52072 h 2.34322 v 1.54913 h -1.79647 q -0.3645,0 -0.53374,0.15622 -0.15621,0.1432 -0.15621,0.44261 v 0.0911 h 2.46038 v 1.54913 h -2.46038 v 5.4545 z m 10.12793,0 q -1.2367,0 -1.80949,-0.55977 -0.57278,-0.55977 -0.57278,-1.71836 v -3.17637 h -1.91364 v -1.54913 h 1.91364 v -1.64025 h 1.99173 v 1.64025 h 2.52548 v 1.54913 h -2.52548 v 2.95507 q 0,0.9503 0.95031,0.9503 h 1.57517 v 1.54913 z m 4.37402,0 -1.24972,-7.00363 h 1.95269 l 0.54675,4.15271 0.62486,-3.12429 h 1.24972 l 0.62486,3.12429 0.54675,-4.15271 h 1.95268 l -1.24972,7.00363 h -1.8225 l -0.67693,-3.13731 -0.67693,3.13731 z m 9.29479,0.15622 q -0.63788,0 -1.17161,-0.23432 -0.53374,-0.23433 -0.84617,-0.67693 -0.31243,-0.45563 -0.31243,-1.09351 0,-0.8722 0.57279,-1.36688 0.58581,-0.5077 1.52309,-0.71598 l 2.0308,-0.44261 q 0,-0.58581 -0.22131,-0.91125 -0.2213,-0.33847 -0.76805,-0.33847 -0.48167,0 -0.72901,0.26036 -0.23432,0.24734 -0.29941,0.59882 l -2.04381,-0.10414 q 0.19527,-1.04143 1.00238,-1.66629 0.80711,-0.62486 2.01777,-0.62486 1.60121,0 2.31719,0.76805 0.71599,0.75504 0.71599,2.14796 v 2.31718 q 0,0.27338 0.0911,0.37752 0.0911,0.10415 0.26036,0.10415 h 0.23432 v 1.44498 q -0.0781,0.013 -0.27338,0.0391 -0.18225,0.026 -0.37751,0.026 -0.68995,0 -1.10653,-0.29941 -0.41657,-0.29941 -0.57278,-0.83314 -0.20829,0.53373 -0.74202,0.88521 -0.52072,0.33847 -1.30179,0.33847 z m 0.4426,-1.44499 q 0.63788,0 0.98937,-0.35148 0.3645,-0.3645 0.3645,-1.02842 v -0.35148 l -1.35387,0.31243 q -0.40355,0.0911 -0.57278,0.27338 -0.15622,0.16923 -0.15622,0.50769 0,0.63788 0.729,0.63788 z m 5.33735,1.28877 v -1.54913 h 1.62724 v -3.90537 h -1.62724 v -1.54913 h 3.05921 l 0.10414,1.35386 q 0.16923,-0.67693 0.57279,-1.01539 0.40355,-0.33847 1.13255,-0.33847 h 1.61422 v 1.58819 h -1.44498 q -0.72901,0 -1.08049,0.3645 -0.33846,0.3645 -0.33846,1.0935 v 2.40831 h 2.1089 v 1.54913 z m 10.88297,0.15622 q -0.98936,0 -1.7444,-0.44261 -0.75504,-0.45563 -1.18463,-1.27575 -0.42959,-0.82013 -0.42959,-1.93967 0,-1.08049 0.41657,-1.90061 0.42959,-0.83315 1.18463,-1.28878 0.75504,-0.46864 1.7444,-0.46864 0.97634,0 1.73138,0.46864 0.75504,0.45563 1.18463,1.28878 0.42959,0.83314 0.42959,1.93966 v 0.48166 h -4.66041 q 0.0781,0.67694 0.44261,1.04144 0.3645,0.3645 0.93729,0.3645 0.41657,0 0.71598,-0.19527 0.31243,-0.20829 0.44261,-0.55977 l 1.96571,0.1432 q -0.78108,2.34322 -3.17637,2.34322 z m -1.28877,-4.41307 h 2.48642 q -0.0521,-0.57279 -0.39054,-0.8722 -0.32545,-0.29941 -0.84616,-0.29941 -0.52072,0 -0.84617,0.29941 -0.32545,0.29941 -0.40355,0.8722 z"
         id="path12" />
    </g>
  </g>
</svg>
